<?xml version="1.0" encoding="UTF-8"?>
<!DOCTYPE svg PUBLIC "-//W3C//DTD SVG 1.1//EN" "http://www.w3.org/Graphics/SVG/1.1/DTD/svg11.dtd">
<!-- Creator: CorelDRAW 2021 (64-Bit) -->
<svg xmlns="http://www.w3.org/2000/svg" xml:space="preserve" width="11in" height="7in" version="1.1" style="shape-rendering:geometricPrecision; text-rendering:geometricPrecision; image-rendering:optimizeQuality; fill-rule:evenodd; clip-rule:evenodd"
viewBox="0 0 11 7"
 xmlns:xlink="http://www.w3.org/1999/xlink"
 xmlns:xodm="http://www.corel.com/coreldraw/odm/2003">
 <defs>
  <style type="text/css">
   <![CDATA[
    .str1 {stroke:white;stroke-width:0.00694;stroke-linecap:round;stroke-linejoin:round;stroke-miterlimit:2.61313}
    .str0 {stroke:white;stroke-width:0.003;stroke-linecap:round;stroke-linejoin:round;stroke-miterlimit:2.61313}
    .fil1 {fill:none;fill-rule:nonzero}
    .fil2 {fill:white}
    .fil0 {fill:white;fill-rule:nonzero}
   ]]>
  </style>
 </defs>
 <g id="Layer_x0020_1">
  <metadata id="CorelCorpID_0Corel-Layer"/>
  <g id="_2323903507120">
   <path class="fil0" d="M1.76949 3.5277l-0.7689 0c-0.01065,-0.03888 -0.0162,-0.07407 -0.0162,-0.10647 0,-0.0449 0.00787,-0.08934 0.02315,-0.13239l0.25784 0c-0.01806,-0.10184 -0.07453,-0.15276 -0.16943,-0.15276 -0.06342,0 -0.1148,0.02685 -0.15461,0.08101 -0.03981,0.0537 -0.05972,0.12313 -0.05972,0.20739 0,0.08795 0.01898,0.15878 0.0574,0.2134 0.03842,0.05416 0.08888,0.08147 0.15137,0.08147 0.05046,0 0.09953,-0.02546 0.14628,-0.07638l0.28886 0.34765c-0.13471,0.10601 -0.28469,0.15924 -0.44949,0.15924 -0.20044,0 -0.3694,-0.06759 -0.50596,-0.2023 -0.13656,-0.13517 -0.20507,-0.30182 -0.20507,-0.50133 0,-0.19813 0.06898,-0.3657 0.20693,-0.50226 0.13841,-0.13656 0.30783,-0.20507 0.50874,-0.20507 0.19628,0 0.36154,0.06666 0.49485,0.20044 0.13378,0.13332 0.20044,0.29765 0.20044,0.49346 0,0.01991 -0.00231,0.05139 -0.00648,0.0949z"/>
   <path id="_1" class="fil0" d="M2.60998 3.61473l0 0.52494c-0.04167,0.00694 -0.07962,0.01019 -0.11388,0.01019 -0.20322,0 -0.37218,-0.06712 -0.50781,-0.20091 -0.13563,-0.13378 -0.20322,-0.30135 -0.20322,-0.50319 0,-0.19628 0.06851,-0.36246 0.20553,-0.49902 0.13656,-0.13656 0.30321,-0.20507 0.49948,-0.20507 0.2185,0 0.3907,0.06388 0.51707,0.19211 0.12591,0.12823 0.18887,0.30321 0.18887,0.52494l0 0.66335 -0.50828 0 0 -0.62678c0,-0.07129 -0.01713,-0.12823 -0.05185,-0.17081 -0.03426,-0.04213 -0.08101,-0.06342 -0.13934,-0.06342 -0.05277,0 -0.0986,0.01944 -0.13702,0.05833 -0.03842,0.03889 -0.05787,0.08471 -0.05787,0.13795 0,0.05601 0.01759,0.1023 0.05231,0.13841 0.03518,0.03611 0.07962,0.05416 0.13332,0.05416 0.04398,0 0.08518,-0.01157 0.12267,-0.03518z"/>
   <path id="_2" class="fil0" d="M4.21519 2.7889l0 0.53467c-0.07129,0 -0.12036,0.01342 -0.14674,0.03981 -0.02685,0.02685 -0.04352,0.07962 -0.05092,0.15785 -0.02361,0.26108 -0.12452,0.44532 -0.30321,0.55272 -0.0949,0.05601 -0.2296,0.08425 -0.40366,0.08425l-0.07037 0 0 -0.53605 0.02315 0c0.08101,0 0.13887,-0.01713 0.17406,-0.05092 0.03472,-0.0338 0.05463,-0.09351 0.06018,-0.17822 0.00694,-0.13841 0.01991,-0.23609 0.03842,-0.2921 0.01852,-0.05602 0.05648,-0.11156 0.11295,-0.16665 0.09953,-0.09675 0.23701,-0.14535 0.41292,-0.14535l0.15322 0z"/>
   <path id="_3" class="fil0" d="M4.43398 4.71415l0 -0.44023c0.06851,0.02824 0.12869,0.04259 0.18054,0.04259 0.16433,0 0.2708,-0.09258 0.31987,-0.27729 -0.08842,0.05324 -0.17498,0.08009 -0.26016,0.08009 -0.12545,0 -0.22868,-0.04676 -0.31015,-0.14073 -0.08101,-0.09397 -0.12174,-0.2134 -0.12174,-0.3583l0 -0.85083 0.50828 0 0 0.72724c0,0.08194 0.03287,0.12267 0.09907,0.12267 0.06342,0 0.09536,-0.0449 0.09536,-0.13517l0 -0.71474 0.50828 0 0 1.20728c0,0.22544 -0.06342,0.40736 -0.19026,0.54578 -0.15091,0.16433 -0.33376,0.24673 -0.54809,0.24673 -0.09397,0 -0.18794,-0.01852 -0.28099,-0.05509z"/>
   <path id="_4" class="fil0" d="M6.47341 2.7889l0 0.53467c-0.07129,0 -0.12036,0.01342 -0.14674,0.03981 -0.02685,0.02685 -0.04352,0.07962 -0.05092,0.15785 -0.02361,0.26108 -0.12452,0.44532 -0.30321,0.55272 -0.0949,0.05601 -0.2296,0.08425 -0.40366,0.08425l-0.07037 0 0 -0.53605 0.02315 0c0.08101,0 0.13887,-0.01713 0.17406,-0.05092 0.03472,-0.0338 0.05463,-0.09351 0.06018,-0.17822 0.00694,-0.13841 0.01991,-0.23609 0.03842,-0.2921 0.01852,-0.05602 0.05648,-0.11156 0.11295,-0.16665 0.09953,-0.09675 0.23701,-0.14535 0.41292,-0.14535l0.15322 0z"/>
   <path id="_5" class="fil0" d="M7.0255 2.26951l0 0.56661c0.08564,-0.06296 0.17128,-0.09444 0.25692,-0.09444 0.13008,0 0.23285,0.04722 0.30923,0.14119 0.07638,0.09444 0.11434,0.22128 0.11434,0.38191l0 0.85731 -0.50828 0 0 -0.7152c0,-0.0574 -0.00602,-0.09629 -0.01806,-0.11619 -0.01204,-0.01991 -0.03518,-0.02963 -0.0699,-0.02963 -0.05601,0 -0.08425,0.04166 -0.08425,0.12545l0 0.73557 -0.50828 0 0 -1.85258 0.50828 0z"/>
   <path id="_6" class="fil0" d="M8.5224 2.74168c0.19211,0 0.35644,0.06898 0.49346,0.20693 0.13748,0.13795 0.206,0.30321 0.206,0.49578 0,0.19535 -0.06944,0.362 -0.20831,0.49948 -0.13933,0.13748 -0.30691,0.206 -0.50319,0.206 -0.19674,0 -0.36478,-0.06898 -0.50411,-0.20692 -0.13933,-0.13795 -0.20924,-0.30414 -0.20924,-0.49856 0,-0.19813 0.0699,-0.36478 0.20924,-0.49995 0.13934,-0.13517 0.31154,-0.20276 0.51615,-0.20276zm-0.01343 0.49995c-0.05462,0 -0.10045,0.01991 -0.13841,0.05925 -0.03796,0.03935 -0.05694,0.08749 -0.05694,0.14489 0,0.05601 0.01898,0.10415 0.0574,0.14443 0.03842,0.03981 0.08425,0.05971 0.13795,0.05971 0.05416,0 0.10045,-0.01991 0.13887,-0.05971 0.03842,-0.04028 0.0574,-0.08842 0.0574,-0.14443 0,-0.0574 -0.01898,-0.10555 -0.05694,-0.14489 -0.03796,-0.03935 -0.08425,-0.05925 -0.13934,-0.05925z"/>
   <path id="_7" class="fil0" d="M9.78783 4.62203l-0.50828 0 0 -1.12812c0,-0.20739 0.05416,-0.37635 0.16294,-0.50643 0.0625,-0.07499 0.14211,-0.1347 0.2384,-0.17915 0.09629,-0.04444 0.19535,-0.06666 0.29673,-0.06666 0.20183,0 0.37218,0.06805 0.51059,0.20369 0.13841,0.13563 0.20785,0.30182 0.20785,0.49902 0,0.19165 -0.06897,0.35737 -0.20646,0.4967 -0.13748,0.13934 -0.29997,0.20878 -0.48837,0.20878 -0.03055,0 -0.07592,-0.00278 -0.13563,-0.0088l0 -0.5592c0.04167,0.03241 0.08333,0.04861 0.12499,0.04861 0.05277,0 0.09767,-0.01944 0.13517,-0.05833 0.0375,-0.03889 0.05648,-0.08471 0.05648,-0.13795 0,-0.0537 -0.01944,-0.09906 -0.05833,-0.13656 -0.03935,-0.0375 -0.08564,-0.05601 -0.14026,-0.05601 -0.13054,0 -0.19581,0.09027 -0.19581,0.27127l0 1.10914z"/>
   <path id="_8" class="fil1 str0" d="M1.76949 3.5277l-0.7689 0c-0.01065,-0.03888 -0.0162,-0.07407 -0.0162,-0.10647 0,-0.0449 0.00787,-0.08934 0.02315,-0.13239l0.25784 0c-0.01806,-0.10184 -0.07453,-0.15276 -0.16943,-0.15276 -0.06342,0 -0.1148,0.02685 -0.15461,0.08101 -0.03981,0.0537 -0.05972,0.12313 -0.05972,0.20739 0,0.08795 0.01898,0.15878 0.0574,0.2134 0.03842,0.05416 0.08888,0.08147 0.15137,0.08147 0.05046,0 0.09953,-0.02546 0.14628,-0.07638l0.28886 0.34765c-0.13471,0.10601 -0.28469,0.15924 -0.44949,0.15924 -0.20044,0 -0.3694,-0.06759 -0.50596,-0.2023 -0.13656,-0.13517 -0.20507,-0.30182 -0.20507,-0.50133 0,-0.19813 0.06898,-0.3657 0.20693,-0.50226 0.13841,-0.13656 0.30783,-0.20507 0.50874,-0.20507 0.19628,0 0.36154,0.06666 0.49485,0.20044 0.13378,0.13332 0.20044,0.29765 0.20044,0.49346 0,0.01991 -0.00231,0.05139 -0.00648,0.0949z"/>
   <path id="_9" class="fil1 str0" d="M2.60998 3.61473l0 0.52494c-0.04167,0.00694 -0.07962,0.01019 -0.11388,0.01019 -0.20322,0 -0.37218,-0.06712 -0.50781,-0.20091 -0.13563,-0.13378 -0.20322,-0.30135 -0.20322,-0.50319 0,-0.19628 0.06851,-0.36246 0.20553,-0.49902 0.13656,-0.13656 0.30321,-0.20507 0.49948,-0.20507 0.2185,0 0.3907,0.06388 0.51707,0.19211 0.12591,0.12823 0.18887,0.30321 0.18887,0.52494l0 0.66335 -0.50828 0 0 -0.62678c0,-0.07129 -0.01713,-0.12823 -0.05185,-0.17081 -0.03426,-0.04213 -0.08101,-0.06342 -0.13934,-0.06342 -0.05277,0 -0.0986,0.01944 -0.13702,0.05833 -0.03842,0.03889 -0.05787,0.08471 -0.05787,0.13795 0,0.05601 0.01759,0.1023 0.05231,0.13841 0.03518,0.03611 0.07962,0.05416 0.13332,0.05416 0.04398,0 0.08518,-0.01157 0.12267,-0.03518z"/>
   <path id="_10" class="fil1 str0" d="M4.21519 2.7889l0 0.53467c-0.07129,0 -0.12036,0.01342 -0.14674,0.03981 -0.02685,0.02685 -0.04352,0.07962 -0.05092,0.15785 -0.02361,0.26108 -0.12452,0.44532 -0.30321,0.55272 -0.0949,0.05601 -0.2296,0.08425 -0.40366,0.08425l-0.07037 0 0 -0.53605 0.02315 0c0.08101,0 0.13887,-0.01713 0.17406,-0.05092 0.03472,-0.0338 0.05463,-0.09351 0.06018,-0.17822 0.00694,-0.13841 0.01991,-0.23609 0.03842,-0.2921 0.01852,-0.05602 0.05648,-0.11156 0.11295,-0.16665 0.09953,-0.09675 0.23701,-0.14535 0.41292,-0.14535l0.15322 0z"/>
   <path id="_11" class="fil1 str0" d="M4.43398 4.71415l0 -0.44023c0.06851,0.02824 0.12869,0.04259 0.18054,0.04259 0.16433,0 0.2708,-0.09258 0.31987,-0.27729 -0.08842,0.05324 -0.17498,0.08009 -0.26016,0.08009 -0.12545,0 -0.22868,-0.04676 -0.31015,-0.14073 -0.08101,-0.09397 -0.12174,-0.2134 -0.12174,-0.3583l0 -0.85083 0.50828 0 0 0.72724c0,0.08194 0.03287,0.12267 0.09907,0.12267 0.06342,0 0.09536,-0.0449 0.09536,-0.13517l0 -0.71474 0.50828 0 0 1.20728c0,0.22544 -0.06342,0.40736 -0.19026,0.54578 -0.15091,0.16433 -0.33376,0.24673 -0.54809,0.24673 -0.09397,0 -0.18794,-0.01852 -0.28099,-0.05509z"/>
   <path id="_12" class="fil1 str0" d="M6.47341 2.7889l0 0.53467c-0.07129,0 -0.12036,0.01342 -0.14674,0.03981 -0.02685,0.02685 -0.04352,0.07962 -0.05092,0.15785 -0.02361,0.26108 -0.12452,0.44532 -0.30321,0.55272 -0.0949,0.05601 -0.2296,0.08425 -0.40366,0.08425l-0.07037 0 0 -0.53605 0.02315 0c0.08101,0 0.13887,-0.01713 0.17406,-0.05092 0.03472,-0.0338 0.05463,-0.09351 0.06018,-0.17822 0.00694,-0.13841 0.01991,-0.23609 0.03842,-0.2921 0.01852,-0.05602 0.05648,-0.11156 0.11295,-0.16665 0.09953,-0.09675 0.23701,-0.14535 0.41292,-0.14535l0.15322 0z"/>
   <path id="_13" class="fil1 str0" d="M7.0255 2.26951l0 0.56661c0.08564,-0.06296 0.17128,-0.09444 0.25692,-0.09444 0.13008,0 0.23285,0.04722 0.30923,0.14119 0.07638,0.09444 0.11434,0.22128 0.11434,0.38191l0 0.85731 -0.50828 0 0 -0.7152c0,-0.0574 -0.00602,-0.09629 -0.01806,-0.11619 -0.01204,-0.01991 -0.03518,-0.02963 -0.0699,-0.02963 -0.05601,0 -0.08425,0.04166 -0.08425,0.12545l0 0.73557 -0.50828 0 0 -1.85258 0.50828 0z"/>
   <path id="_14" class="fil1 str0" d="M8.5224 2.74168c0.19211,0 0.35644,0.06898 0.49346,0.20693 0.13748,0.13795 0.206,0.30321 0.206,0.49578 0,0.19535 -0.06944,0.362 -0.20831,0.49948 -0.13933,0.13748 -0.30691,0.206 -0.50319,0.206 -0.19674,0 -0.36478,-0.06898 -0.50411,-0.20692 -0.13933,-0.13795 -0.20924,-0.30414 -0.20924,-0.49856 0,-0.19813 0.0699,-0.36478 0.20924,-0.49995 0.13934,-0.13517 0.31154,-0.20276 0.51615,-0.20276zm-0.01343 0.49995c-0.05462,0 -0.10045,0.01991 -0.13841,0.05925 -0.03796,0.03935 -0.05694,0.08749 -0.05694,0.14489 0,0.05601 0.01898,0.10415 0.0574,0.14443 0.03842,0.03981 0.08425,0.05971 0.13795,0.05971 0.05416,0 0.10045,-0.01991 0.13887,-0.05971 0.03842,-0.04028 0.0574,-0.08842 0.0574,-0.14443 0,-0.0574 -0.01898,-0.10555 -0.05694,-0.14489 -0.03796,-0.03935 -0.08425,-0.05925 -0.13934,-0.05925z"/>
   <path id="_15" class="fil1 str0" d="M9.78783 4.62203l-0.50828 0 0 -1.12812c0,-0.20739 0.05416,-0.37635 0.16294,-0.50643 0.0625,-0.07499 0.14211,-0.1347 0.2384,-0.17915 0.09629,-0.04444 0.19535,-0.06666 0.29673,-0.06666 0.20183,0 0.37218,0.06805 0.51059,0.20369 0.13841,0.13563 0.20785,0.30182 0.20785,0.49902 0,0.19165 -0.06897,0.35737 -0.20646,0.4967 -0.13748,0.13934 -0.29997,0.20878 -0.48837,0.20878 -0.03055,0 -0.07592,-0.00278 -0.13563,-0.0088l0 -0.5592c0.04167,0.03241 0.08333,0.04861 0.12499,0.04861 0.05277,0 0.09767,-0.01944 0.13517,-0.05833 0.0375,-0.03889 0.05648,-0.08471 0.05648,-0.13795 0,-0.0537 -0.01944,-0.09906 -0.05833,-0.13656 -0.03935,-0.0375 -0.08564,-0.05601 -0.14026,-0.05601 -0.13054,0 -0.19581,0.09027 -0.19581,0.27127l0 1.10914z"/>
   <rect class="fil2 str1" x="0.38118" y="4.98158" width="10.3121" height="0.37775"/>
   <rect class="fil2 str1" x="0.34266" y="5.69807" width="10.3121" height="0.37775"/>
   <rect class="fil2 str1" x="0.31461" y="0.91511" width="10.3121" height="0.37775"/>
  </g>
 </g>
</svg>
